<svg xmlns="http://www.w3.org/2000/svg" style="display: none">
    <symbol id="img-list" viewBox="0 0 24 24">
        <title>list.svg</title>
        <path fill="none" d="M0 0h24v24H0V0z" />
        <path class="svg-fill" d="M3 13h2v-2H3v2zm0 4h2v-2H3v2zm0-8h2V7H3v2zm4 4h14v-2H7v2zm0 4h14v-2H7v2zM7 7v2h14V7H7zm-4 6h2v-2H3v2zm0 4h2v-2H3v2zm0-8h2V7H3v2zm4 4h14v-2H7v2zm0 4h14v-2H7v2zM7 7v2h14V7H7z" />
    </symbol>

    <symbol id="img-colors" viewBox="0 0 24 24">
        <title>colors.svg</title>
        <path fill="none" d="M0 0h24v24H0z" />
        <path class="svg-fill" d="M12 22C6.49 22 2 17.51 2 12S6.49 2 12 2s10 4.04 10 9c0 3.31-2.69 6-6 6h-1.77c-.28 0-.5.22-.5.5 0 .12.05.23.13.33.41.47.64 1.06.64 1.67 0 1.38-1.12 2.5-2.5 2.5zm0-18c-4.41 0-8 3.59-8 8s3.59 8 8 8c.28 0 .5-.22.5-.5 0-.16-.08-.28-.14-.35-.41-.46-.63-1.05-.63-1.65 0-1.38 1.12-2.5 2.5-2.5H16c2.21 0 4-1.79 4-4 0-3.86-3.59-7-8-7z" />
        <circle cx="6.5"  cy="11.5" r="1.5" class="svg-s1" style="fill:#ff6f61" vector-effect="non-scaling-stroke" />
        <circle cx="9.5"  cy="7.5"  r="1.5" class="svg-s1" style="fill:#a000a0" vector-effect="non-scaling-stroke" />
        <circle cx="14.5" cy="7.5"  r="1.5" class="svg-s1" style="fill:#0f4c81" vector-effect="non-scaling-stroke" />
        <circle cx="17.5" cy="11.5" r="1.5" class="svg-s1" style="fill:#88b04b" vector-effect="non-scaling-stroke" />
    </symbol>

    <symbol id="img-play" viewBox="0 0 24 24">
        <title>play.svg</title>
        <path fill="none" d="M0 0h24v24H0V0z" />
        <path class="svg-fill" d="M10 16.5l6-4.5-6-4.5zM12 2C6.48 2 2 6.48 2 12s4.48 10 10 10 10-4.48 10-10S17.52 2 12 2zm0 18c-4.41 0-8-3.59-8-8s3.59-8 8-8 8 3.59 8 8-3.59 8-8 8z" />
    </symbol>
</svg>
